<?xml version="1.0" standalone="no"?>
<!DOCTYPE svg PUBLIC "-//W3C//DTD SVG 20010904//EN"
 "http://www.w3.org/TR/2001/REC-SVG-20010904/DTD/svg10.dtd">
<svg version="1.0" xmlns="http://www.w3.org/2000/svg"
 width="512.000000pt" height="512.000000pt" viewBox="0 0 512.000000 512.000000"
 preserveAspectRatio="xMidYMid meet">
<metadata>
Created by potrace 1.14, written by Peter Selinger 2001-2017
</metadata>
<g transform="translate(0.000000,512.000000) scale(0.100000,-0.100000)"
fill="#000000" stroke="none">
<path d="M3 4898 c2 -123 7 -241 10 -263 12 -73 14 -214 4 -218 -5 -1 -2 -17
7 -35 9 -18 15 -39 14 -47 -2 -7 0 -14 5 -14 26 -3 29 0 17 15 -12 13 -10 14
13 3 29 -13 44 -39 22 -39 -7 0 -17 -5 -21 -12 -4 -7 -3 -8 4 -4 7 4 12 1 12
-9 0 -10 -5 -13 -13 -9 -8 5 -8 2 2 -9 15 -19 26 -23 15 -5 -4 7 -3 8 5 4 6
-4 8 -13 4 -19 -10 -17 -11 -47 -1 -41 5 4 7 12 4 19 -2 7 2 16 10 19 9 3 12
1 9 -4 -10 -17 6 -34 17 -19 7 10 8 6 4 -12 -6 -26 14 -56 27 -42 4 3 12 1 19
-5 7 -6 16 -12 20 -14 8 -3 34 29 38 47 1 6 11 27 21 47 10 21 19 46 19 56 0
11 9 31 20 45 11 14 20 40 20 60 0 39 20 61 47 53 43 -12 101 -20 146 -20 26
1 47 -4 47 -9 0 -6 3 -7 7 -3 4 4 8 25 9 47 1 22 7 46 13 53 8 10 7 21 -4 42
-19 36 -19 49 -1 77 8 12 20 51 26 87 7 36 19 81 28 100 15 33 18 41 21 56 0
4 8 1 16 -6 12 -10 13 -8 10 12 -5 25 2 58 13 57 4 -1 10 0 15 1 22 7 33 4 45
-15 11 -16 12 -16 8 -2 -3 10 -2 16 3 13 5 -3 11 -15 14 -26 3 -11 1 -18 -3
-15 -5 3 -2 -8 6 -25 17 -33 27 -41 17 -12 -3 9 -3 14 1 10 4 -3 8 -12 10 -20
1 -7 5 -18 8 -24 11 -17 3 -163 -10 -176 -6 -6 -8 -17 -5 -26 5 -11 3 -13 -8
-7 -11 7 -12 6 -2 -7 7 -8 11 -17 8 -20 -8 -8 16 -69 25 -63 4 3 11 -2 14 -11
4 -10 2 -13 -7 -9 -6 4 -4 0 6 -9 21 -17 51 -10 43 10 -3 8 2 11 16 9 11 -3
18 -2 14 2 -3 3 -1 12 4 18 6 7 13 56 17 109 3 53 10 96 14 96 5 0 6 6 3 13
-3 8 4 13 16 14 11 1 18 -2 15 -7 -3 -5 -1 -11 5 -15 6 -4 8 -11 5 -16 -4 -5
5 -4 19 3 14 6 26 17 26 25 0 7 7 13 15 13 17 0 56 35 49 44 -2 3 -1 4 2 2 3
-2 18 -1 33 4 33 9 58 -18 38 -41 -10 -10 -9 -10 6 0 9 8 15 16 13 19 -9 8 14
43 24 37 6 -4 7 1 3 11 -5 13 -3 15 8 9 12 -7 12 -6 1 7 -10 13 -10 18 -1 24
7 4 9 3 6 -2 -3 -5 3 -10 13 -10 18 0 18 1 2 17 -9 9 -20 15 -24 12 -4 -2 -5
4 -1 13 4 11 3 15 -4 11 -12 -7 -11 -1 1 45 6 19 12 25 24 21 26 -10 32 -24
32 -75 0 -47 12 -69 26 -47 4 8 3 9 -5 5 -8 -5 -11 2 -9 23 1 16 7 29 13 28 5
-1 9 4 7 12 -3 12 -1 12 14 0 15 -12 17 -12 9 0 -6 11 -4 13 8 8 12 -4 14 -2
10 10 -4 11 -2 14 5 9 8 -4 10 -2 6 8 -3 9 3 19 16 26 11 6 18 15 15 20 -3 6
7 16 22 22 15 7 36 22 46 33 10 11 15 13 11 5 -7 -13 -5 -13 9 -1 10 8 17 9
17 3 0 -6 10 -9 23 -6 12 2 40 1 62 -2 33 -6 36 -8 20 -15 -18 -7 -18 -8 -2
-8 10 -1 15 -5 12 -11 -3 -5 4 -11 17 -11 15 -1 18 -3 6 -6 -9 -2 -19 -11 -22
-19 -3 -9 -1 -12 4 -9 6 3 10 -4 10 -16 0 -16 -5 -20 -19 -16 -17 4 -18 2 -11
-18 8 -20 6 -23 -11 -20 -11 2 -17 0 -13 -6 3 -5 0 -17 -8 -26 -9 -12 -9 -15
0 -9 6 4 12 4 12 -1 0 -4 3 -19 7 -32 5 -19 3 -22 -8 -16 -12 7 -12 6 -1 -7
11 -14 11 -16 0 -14 -7 1 -18 5 -24 8 -6 4 -11 2 -12 -5 -5 -68 -12 -93 -30
-108 -12 -9 -18 -19 -15 -23 4 -3 1 -6 -6 -6 -7 0 -9 -4 -6 -10 3 -5 1 -10 -5
-10 -6 0 -9 -4 -6 -8 3 -5 -8 -23 -24 -40 -26 -28 -27 -35 -18 -65 6 -19 17
-34 24 -34 8 0 12 2 10 5 -8 7 18 30 28 24 5 -3 6 -1 3 5 -4 6 0 19 8 29 13
16 16 17 24 4 9 -13 12 -12 25 5 8 11 22 39 30 62 15 44 59 93 82 93 8 0 14 4
14 9 0 5 10 11 22 14 12 4 19 9 15 13 -4 4 -1 14 6 22 10 13 9 14 -3 8 -8 -4
-4 2 10 13 14 11 30 19 37 16 7 -2 15 1 19 7 4 7 3 8 -4 4 -19 -11 -14 5 6 20
20 16 66 19 57 4 -4 -6 -11 -7 -17 -4 -7 4 -8 2 -4 -5 4 -6 11 -9 16 -6 4 3
10 -1 13 -7 2 -7 4 1 3 19 0 17 -4 29 -7 27 -4 -2 -10 4 -13 13 -4 10 -4 14 0
11 9 -10 44 10 44 25 0 7 -4 6 -10 -3 -7 -11 -10 -6 -10 22 0 20 -6 38 -12 41
-10 3 -10 9 -1 28 7 13 14 33 16 44 1 11 6 26 11 34 7 11 -17 12 -145 7 -179
-7 -230 -7 -396 0 l-122 5 -17 -28 c-10 -15 -19 -30 -21 -32 -1 -2 -11 7 -22
20 -17 21 -22 22 -40 11 -17 -10 -25 -10 -41 0 -11 7 -20 16 -20 20 0 5 -239
8 -530 8 l-531 0 4 -222z m1095 113 c1 -1 -6 -9 -15 -19 -14 -14 -20 -15 -26
-5 -14 24 5 35 41 24z m117 -151 c-2 -11 -9 -28 -15 -37 -10 -16 -11 -16 -5 2
4 11 8 27 10 35 5 20 4 20 9 20 3 0 3 -9 1 -20z m425 -80 c0 -5 -5 -10 -11
-10 -5 0 -7 5 -4 10 3 6 8 10 11 10 2 0 4 -4 4 -10z"/>
<path d="M2325 5093 c3 -16 14 -35 23 -43 9 -8 13 -11 9 -6 -4 5 0 17 9 27 22
24 11 49 -22 49 -24 0 -25 -3 -19 -27z"/>
<path d="M2665 5110 c-3 -4 2 -13 11 -20 8 -7 13 -19 10 -27 -3 -7 -1 -13 4
-13 6 0 10 -6 10 -14 0 -35 108 -48 173 -21 20 8 37 13 37 10 0 -3 27 8 61 25
45 23 70 30 99 27 22 -2 37 -1 35 3 -3 5 2 11 11 14 8 3 12 10 9 16 -9 14 -68
12 -84 -2 -11 -10 -12 -10 -7 -1 5 10 -34 13 -178 12 -102 0 -188 -4 -191 -9z"/>
<path d="M3142 5108 c-15 -15 -16 -38 -1 -38 8 0 7 -6 -2 -17 -8 -9 -9 -14 -2
-10 6 4 13 2 15 -4 2 -6 4 10 5 35 2 51 2 51 -15 34z"/>
<path d="M3255 5110 c3 -5 8 -10 11 -10 2 0 4 5 4 10 0 6 -5 10 -11 10 -5 0
-7 -4 -4 -10z"/>
<path d="M1921 5068 c15 -17 41 -20 36 -4 -2 6 -14 13 -26 14 -20 3 -21 2 -10
-10z"/>
<path d="M1266 4848 c3 -5 10 -6 15 -3 13 9 11 12 -6 12 -8 0 -12 -4 -9 -9z"/>
<path d="M2277 4843 c-3 -2 -17 -6 -33 -9 -51 -9 -146 -46 -164 -64 -3 -3 -10
-6 -17 -7 -12 -3 -113 -65 -141 -87 -34 -27 -92 -88 -92 -96 0 -6 -6 -10 -13
-10 -8 0 -22 -9 -32 -20 -10 -11 -25 -20 -33 -20 -13 0 -12 -3 4 -16 10 -8 14
-13 7 -10 -6 4 -15 1 -19 -5 -4 -6 -35 -24 -70 -40 -64 -29 -102 -68 -88 -90
4 -7 3 -9 -3 -6 -26 16 -178 -60 -188 -94 -3 -10 -17 -28 -30 -42 -32 -32 -57
-102 -50 -141 4 -17 2 -58 -3 -91 -6 -38 -6 -62 0 -66 5 -3 -4 -35 -21 -73
-17 -36 -31 -76 -31 -87 0 -36 31 -83 92 -141 67 -63 65 -50 38 -208 -13 -78
-6 -113 30 -162 62 -85 179 -148 276 -148 91 0 113 20 150 138 9 31 31 3 25
-32 -1 -6 3 -21 10 -34 10 -18 10 -27 1 -40 -29 -42 -41 -84 -36 -126 4 -26 1
-52 -6 -66 -11 -21 -9 -26 19 -49 28 -23 41 -26 104 -25 67 0 77 3 139 43 52
33 76 42 113 43 51 1 76 -14 60 -36 -49 -67 -50 -69 -48 -147 2 -76 2 -77 -26
-88 -22 -10 -47 -8 -128 8 -56 12 -111 21 -122 21 -12 0 -21 6 -21 14 0 26
-15 26 -86 1 -38 -14 -87 -25 -110 -25 -50 0 -113 -43 -114 -77 0 -16 -12 -29
-40 -43 -35 -18 -65 -57 -54 -69 2 -2 20 6 40 18 20 12 38 20 40 18 3 -2 -16
-26 -41 -53 -24 -27 -50 -61 -56 -76 -6 -16 -14 -28 -18 -28 -4 0 -15 -20 -25
-45 -24 -56 -40 -59 -31 -5 4 24 3 40 -3 40 -17 0 -38 -43 -76 -155 -21 -60
-43 -115 -49 -120 -32 -27 -77 -169 -48 -151 14 9 14 0 -1 -27 -7 -12 -18 -38
-24 -57 l-11 -35 -11 28 c-7 15 -17 39 -23 55 -7 16 -14 22 -16 14 -3 -7 2
-29 10 -50 8 -20 18 -56 22 -80 6 -36 4 -41 -9 -36 -12 5 -16 0 -16 -21 0 -16
-4 -24 -11 -19 -8 4 -8 0 0 -15 16 -29 0 -27 -29 4 -13 14 -34 25 -47 25 -17
0 -23 6 -23 21 0 16 -4 19 -20 14 -12 -4 -28 -1 -36 6 -13 11 -19 9 -33 -9
-13 -18 -19 -20 -29 -10 -11 11 -18 8 -38 -15 -19 -23 -22 -31 -12 -46 13 -22
3 -54 -15 -48 -8 2 -12 25 -12 65 -1 58 1 62 21 62 33 0 39 19 10 30 -17 6
-26 17 -26 31 0 18 -2 19 -15 9 -8 -7 -15 -27 -15 -44 -1 -28 -28 -94 -30 -71
-1 6 -18 -33 -39 -85 -27 -67 -35 -97 -27 -102 6 -4 47 -8 91 -8 44 0 85 -4
91 -8 23 -15 34 -54 34 -123 0 -60 -4 -77 -21 -95 l-21 -23 21 -22 c18 -20 21
-35 21 -110 0 -129 -5 -134 -157 -134 l-118 0 -6 160 c-4 88 -7 196 -9 240 -1
44 -4 72 -7 63 -2 -10 -8 -18 -13 -18 -5 0 -12 -17 -16 -37 -4 -21 -10 -42
-14 -48 -5 -5 -11 -27 -15 -48 -4 -20 -11 -40 -16 -43 -5 -3 -9 -18 -9 -34 0
-16 -5 -32 -10 -35 -6 -3 -10 -14 -10 -23 0 -9 -7 -30 -15 -46 -8 -15 -13 -32
-10 -36 2 -4 -5 -16 -16 -26 -27 -25 -48 -65 -41 -83 3 -9 0 -11 -7 -6 -7 4
-29 -5 -51 -20 -24 -17 -47 -25 -59 -22 -11 3 -20 2 -19 -2 0 -3 0 -15 -1 -26
-1 -16 -3 -17 -10 -5 -6 8 -7 18 -4 24 3 5 1 6 -6 2 -6 -4 -9 -12 -6 -17 3 -5
-2 -6 -11 -2 -13 5 -15 3 -9 -7 6 -10 4 -11 -6 -4 -24 14 -51 16 -43 2 6 -10
4 -11 -7 -1 -17 17 -42 17 -33 1 6 -10 4 -10 -7 -1 -7 7 -32 13 -56 13 -28 0
-43 4 -43 13 0 8 -18 12 -55 12 l-54 0 -1 -487 0 -488 2560 0 2560 0 0 1428
c0 785 -3 1437 -6 1450 -5 18 -9 20 -21 10 -8 -7 -19 -23 -24 -36 -5 -13 -13
-21 -18 -18 -13 8 -71 -42 -71 -60 0 -9 -5 -12 -10 -9 -6 4 -10 3 -9 -2 2 -7
-7 -33 -28 -83 -3 -8 -7 -18 -8 -22 -2 -5 -4 -11 -5 -15 -1 -5 -2 -12 -1 -16
1 -5 -3 -6 -9 -2 -5 3 -10 -1 -10 -9 0 -8 -4 -17 -9 -20 -5 -4 -7 2 -4 13 3
10 -1 22 -8 26 -8 5 -10 4 -5 -3 4 -7 2 -20 -3 -29 -6 -11 -11 -13 -11 -5 0 8
-5 10 -12 6 -7 -4 -10 -4 -6 1 13 14 -13 37 -27 25 -10 -8 -15 -8 -21 1 -5 8
-3 9 7 4 12 -8 12 -6 0 8 -13 16 -15 16 -32 1 -12 -11 -19 -13 -19 -5 0 7 -5
9 -10 6 -5 -3 -10 -2 -10 4 0 5 -8 8 -17 7 -28 -4 -87 15 -96 31 -8 12 -11 11
-24 -7 -8 -11 -13 -27 -10 -34 6 -15 -37 -16 -50 -2 -5 5 -2 6 6 1 10 -5 12
-4 7 4 -9 14 -26 5 -26 -15 0 -9 -5 -12 -12 -8 -8 5 -9 2 -4 -11 5 -15 4 -16
-9 -5 -14 11 -19 10 -35 -6 -17 -18 -68 -134 -75 -172 -2 -9 -4 -18 -5 -19 -1
-2 -3 -13 -3 -25 -1 -16 12 -32 43 -55 87 -63 100 -75 94 -84 -3 -5 8 -26 24
-47 16 -20 34 -46 40 -58 19 -35 153 -405 182 -502 l28 -92 -35 -15 c-20 -8
-39 -15 -43 -15 -4 0 -13 -7 -20 -15 -10 -13 -17 -12 -52 6 -30 15 -38 24 -33
39 8 24 -15 60 -37 60 -14 0 -146 -38 -156 -45 -2 -2 6 -18 18 -38 21 -35 31
-131 16 -155 -9 -14 -75 -16 -96 -2 -8 5 -15 24 -15 42 0 27 -4 34 -23 36 -22
3 -23 0 -20 -39 3 -42 4 -43 63 -67 94 -38 95 -38 95 -162 0 -139 -1 -140
-136 -140 -54 0 -104 4 -110 8 -22 15 -34 52 -34 110 0 69 7 75 75 65 l45 -6
0 -43 c0 -37 3 -44 19 -44 23 0 28 12 23 57 -4 32 -10 38 -68 64 -85 39 -94
54 -94 160 0 72 3 91 21 113 19 24 26 26 98 26 69 0 81 3 105 25 15 14 24 30
21 35 -3 6 1 10 9 10 9 0 18 10 21 23 4 12 35 47 70 77 59 51 80 80 55 80 -5
0 -50 -20 -99 -45 -49 -25 -94 -45 -100 -45 -14 0 -14 47 -1 55 5 3 10 13 10
22 0 12 -3 13 -14 4 -27 -23 -27 8 -1 61 37 72 47 101 35 93 -6 -3 -10 -13
-10 -21 0 -8 -5 -14 -10 -14 -6 0 -15 -12 -21 -27 l-11 -28 -11 23 c-6 13 -16
21 -23 18 -14 -6 -37 17 -27 27 3 4 -3 7 -15 7 -22 0 -28 10 -15 23 3 4 17 0
29 -8 13 -8 25 -11 27 -7 3 4 -1 41 -7 82 -13 77 -69 206 -86 195 -8 -5 -24
12 -60 64 -10 15 -16 17 -22 8 -6 -9 -12 -7 -23 7 -8 11 -15 16 -15 11 0 -5 7
-16 16 -26 24 -27 11 -51 -21 -39 -16 6 -25 6 -25 0 0 -23 -22 -8 -35 24 -23
55 -59 106 -72 101 -11 -4 -29 31 -25 47 1 6 -66 78 -74 78 -1 0 6 -19 16 -42
16 -36 17 -44 5 -46 -23 -5 -18 -22 6 -22 20 0 48 -24 49 -42 0 -4 -17 -4 -37
-1 l-37 6 23 -31 c12 -18 27 -32 32 -32 5 0 9 -4 9 -10 0 -5 -7 -10 -15 -10
-8 0 -15 -4 -15 -10 0 -5 6 -10 13 -10 8 0 23 -10 35 -23 l22 -24 -30 5 c-38
6 -38 -8 0 -33 17 -11 36 -30 43 -41 7 -12 21 -37 31 -55 11 -19 25 -56 32
-84 12 -43 11 -51 -1 -58 -9 -4 -15 -22 -15 -42 0 -28 8 -41 45 -72 52 -43 55
-53 19 -53 -25 0 -26 -2 -20 -36 4 -19 10 -42 13 -50 4 -11 0 -12 -18 -5 -19
7 -30 26 -52 97 -15 49 -25 95 -22 102 3 8 -19 64 -49 125 -29 62 -57 132 -60
156 -4 24 -13 56 -21 71 -10 20 -12 31 -4 36 7 4 2 16 -13 33 -13 14 -34 47
-47 73 -21 45 -41 69 -41 51 0 -4 13 -42 30 -83 16 -41 29 -87 30 -102 0 -15
4 -30 10 -33 5 -3 23 -47 39 -98 36 -111 78 -226 91 -249 8 -14 60 -206 60
-222 0 -2 -27 6 -60 20 -66 27 -153 32 -238 14 -44 -10 -53 -8 -101 15 -28 15
-62 25 -74 23 -18 -3 -14 -7 25 -26 31 -15 45 -28 42 -37 -4 -9 1 -14 13 -13
27 1 73 -20 73 -34 0 -9 3 -9 12 0 15 15 78 16 78 1 0 -7 -9 -9 -23 -5 -12 3
-33 0 -47 -7 -20 -11 -27 -11 -35 0 -7 9 -20 10 -45 4 -20 -4 -46 -4 -58 0
-13 5 -22 4 -22 -1 0 -6 -9 -10 -21 -10 -16 0 -19 -4 -15 -16 4 -9 3 -121 0
-248 -7 -222 -8 -231 -30 -253 -20 -20 -33 -23 -107 -23 -98 0 -124 13 -135
70 -4 19 -7 130 -7 245 l0 210 63 0 63 0 2 -205 c1 -129 6 -205 12 -205 6 0
10 74 10 203 0 111 3 202 8 202 4 0 7 5 7 10 0 6 -8 10 -18 10 -10 0 -21 3
-24 6 -4 3 -36 6 -72 7 -49 2 -66 -1 -66 -11 0 -8 -6 -12 -12 -10 -7 3 -13 10
-13 15 0 6 -3 15 -7 19 -5 4 -8 3 -8 -2 0 -6 -43 -10 -101 -10 -77 0 -97 3
-85 12 22 16 9 24 -41 24 -38 0 -43 -3 -44 -22 -1 -22 -1 -22 -9 2 -14 43 -11
95 10 182 22 92 26 169 10 199 -9 16 -1 38 46 122 138 249 183 334 195 370
l13 38 46 -7 c25 -4 55 -11 68 -15 34 -13 45 -11 38 8 -4 9 -2 20 5 23 25 16
-184 283 -282 360 -64 51 -85 51 -105 3 -9 -21 -23 -53 -31 -71 -16 -33 -10
-59 7 -32 14 22 54 -74 85 -204 25 -103 26 -111 10 -123 -23 -16 -52 -1 -65
33 -5 13 -12 24 -15 24 -4 0 -15 -20 -26 -46 -11 -25 -40 -74 -65 -108 -56
-80 -56 -93 -4 -90 l39 2 -13 -27 c-8 -14 -23 -35 -33 -46 -10 -11 -26 -33
-37 -49 -22 -35 -17 -39 -124 116 -86 125 -90 140 -29 113 10 -4 20 -6 22 -3
2 2 -6 46 -19 97 -29 112 -44 130 -153 183 -78 37 -110 58 -60 39 121 -46 237
-123 237 -158 0 -17 29 -31 54 -27 12 3 15 2 8 -2 -6 -3 -10 -10 -6 -15 12
-21 12 -48 0 -43 -9 4 -16 -7 -20 -31 -4 -21 -5 -39 -2 -42 11 -11 63 38 79
74 9 21 25 60 36 87 20 46 22 48 39 33 17 -15 18 -14 16 21 0 21 -7 49 -15 62
l-13 25 -7 -30 c-6 -29 -7 -29 -8 8 0 21 2 36 7 34 4 -3 5 15 3 39 -2 31 5 64
23 109 32 79 33 95 6 90 -11 -2 -19 1 -17 8 1 7 -6 11 -15 9 -10 -2 -18 2 -18
8 0 5 5 9 12 8 7 -2 13 2 13 7 7 53 40 131 68 162 11 13 22 41 24 65 9 92 9
109 3 113 -4 2 -8 30 -9 61 -1 32 -4 61 -7 66 -10 16 27 68 49 68 21 0 109 30
145 50 9 5 46 21 82 37 96 41 150 73 150 89 0 8 -10 14 -22 14 -17 0 -19 3
-10 12 7 7 12 21 12 33 0 19 -1 19 -18 -3 l-18 -23 -12 26 c-14 30 -9 45 15
45 12 0 13 3 4 14 -10 12 -4 17 28 32 48 21 55 36 37 77 -7 18 -21 55 -31 82
-24 67 -31 75 -74 75 l-37 0 -13 78 c-7 42 -17 90 -23 105 -6 15 -8 30 -5 33
9 10 27 -6 27 -24 0 -15 2 -15 10 -2 14 21 12 43 -2 34 -8 -5 -9 -2 -5 10 10
26 -73 179 -150 276 -104 130 -202 195 -368 246 -81 24 -108 27 -257 29 -92 1
-169 1 -171 -2z m167 -125 c22 1 45 -3 52 -9 7 -6 18 -8 24 -4 5 3 14 -4 18
-16 7 -19 17 -22 64 -24 39 -1 64 -8 86 -23 21 -16 39 -21 56 -16 39 9 53 -6
25 -27 -20 -15 -21 -19 -6 -19 20 0 22 -11 5 -28 -8 -8 -8 -15 2 -27 11 -13
10 -18 -4 -28 -16 -12 -15 -15 10 -42 l28 -30 -30 -3 c-16 -2 -34 -9 -39 -16
-17 -23 -52 -28 -69 -11 -8 9 -18 14 -22 13 -4 -2 -9 7 -10 20 -2 13 1 22 9
22 6 0 4 5 -6 11 -12 7 -22 7 -30 1 -18 -15 -67 -12 -67 4 0 8 5 14 10 14 6 0
10 7 10 15 0 8 -7 15 -15 15 -8 0 -15 -5 -15 -10 0 -6 -11 -3 -25 6 -30 20
-32 6 -5 -29 28 -35 25 -41 -9 -16 -16 12 -34 18 -40 15 -7 -4 -11 1 -11 13 0
16 -6 21 -27 21 -25 0 -25 1 -10 18 17 19 14 32 -9 32 -19 0 -23 -47 -5 -64
14 -15 13 -16 -9 -16 -25 -1 -25 -1 -5 -16 11 -8 28 -13 38 -10 9 2 17 1 17
-3 0 -4 25 -14 55 -21 30 -7 55 -17 55 -22 0 -4 9 -8 20 -8 11 0 20 -5 20 -11
0 -7 -7 -8 -17 -4 -10 4 -40 11 -68 15 -27 5 -63 13 -80 20 -66 26 -299 47
-311 28 -4 -5 -15 0 -25 11 -12 12 -32 21 -49 21 -35 0 -40 15 -7 24 12 3 34
23 47 45 14 22 36 46 50 54 14 9 34 24 46 34 33 30 62 43 93 43 17 0 47 12 68
26 25 17 44 23 58 18 11 -4 38 -6 59 -6z m-338 -47 c-8 -13 -36 -15 -36 -3 0
4 5 13 12 20 14 14 34 0 24 -17z m-123 -178 c-7 -2 -19 -2 -25 0 -7 3 -2 5 12
5 14 0 19 -2 13 -5z m105 -113 c2 -4 18 -6 35 -4 29 4 68 -9 57 -19 -3 -3 -59
1 -125 9 -66 7 -148 13 -182 14 -36 0 -65 5 -69 12 -5 8 29 10 137 4 79 -3
145 -11 147 -16z m-325 3 c-7 -2 -21 -2 -30 0 -10 3 -4 5 12 5 17 0 24 -2 18
-5z m972 -42 c10 -17 -12 -21 -25 -6 -10 12 -10 15 3 15 9 0 18 -4 22 -9z
m-465 -11 c13 -8 13 -10 -2 -10 -9 0 -20 5 -23 10 -8 13 5 13 25 0z m511 -3
c-1 -12 -15 -9 -19 4 -3 6 1 10 8 8 6 -3 11 -8 11 -12z m-461 -17 c13 -8 13
-10 -2 -10 -9 0 -20 5 -23 10 -8 13 5 13 25 0z m147 -56 c-3 -3 -12 -4 -19 -1
-8 3 -5 6 6 6 11 1 17 -2 13 -5z m383 -9 c0 -8 -6 -15 -14 -15 -8 0 -16 7 -20
15 -4 10 1 15 14 15 11 0 20 -7 20 -15z m-790 -132 c11 -10 20 -24 20 -32 0
-12 -3 -12 -12 -3 -7 7 -16 12 -20 12 -12 0 -10 -38 2 -45 8 -5 8 -11 0 -20
-12 -15 -179 -9 -195 7 -7 7 1 9 26 5 20 -3 55 -3 77 0 37 5 42 9 57 49 9 24
18 44 21 44 2 0 13 -8 24 -17z m158 -80 c2 -8 -5 -13 -17 -13 -12 0 -21 6 -21
16 0 18 31 15 38 -3z m1002 13 c0 -11 -19 -15 -25 -6 -3 5 1 10 9 10 9 0 16
-2 16 -4z m103 -123 c2 -5 7 -20 11 -35 5 -21 3 -28 -8 -28 -15 0 -26 21 -26
51 0 19 15 26 23 12z m-436 -49 c2 -6 -6 -10 -19 -8 -31 3 -30 3 -23 15 8 12
37 8 42 -7z m-102 -115 c23 -16 77 -36 130 -48 84 -20 86 -21 30 -16 -80 8
-147 33 -192 73 -41 36 -31 33 32 -9z m-526 -50 c35 -12 42 -29 12 -29 -11 0
-23 -5 -26 -10 -5 -8 -11 -7 -21 1 -10 8 -14 8 -14 0 0 -6 -7 -11 -15 -11 -15
0 -10 24 9 47 14 15 16 15 55 2z m-111 -14 c1 -1 0 -10 -4 -19 -6 -15 -8 -15
-35 1 -39 23 -37 36 4 28 17 -4 33 -8 35 -10z m977 5 c-3 -5 -10 -10 -16 -10
-5 0 -9 5 -9 10 0 6 7 10 16 10 8 0 12 -4 9 -10z m-735 -10 c0 -5 -4 -10 -10
-10 -5 0 -10 5 -10 10 0 6 5 10 10 10 6 0 10 -4 10 -10z m680 0 c0 -6 -11 -8
-27 -4 -40 10 -41 14 -5 14 18 0 32 -5 32 -10z m-785 -41 c10 -15 -1 -23 -20
-15 -9 3 -13 10 -10 16 8 13 22 13 30 -1z m-288 -25 c-3 -4 -14 -3 -24 0 -15
6 -15 8 -3 16 16 10 39 -4 27 -16z m63 -10 c0 -13 -4 -24 -9 -24 -15 0 -22 18
-10 25 5 4 8 14 5 22 -3 8 -1 11 4 8 6 -3 10 -17 10 -31z m466 -20 c5 -18 1
-29 -11 -38 -17 -12 -17 -13 -1 -19 10 -4 14 -11 11 -17 -4 -6 -16 -5 -33 4
-24 13 -27 12 -37 -7 -15 -29 -39 -36 -30 -8 4 13 1 28 -5 36 -10 12 -8 15 12
15 17 0 24 6 25 22 4 43 59 53 69 12z m-591 -14 c-3 -5 -10 -10 -16 -10 -5 0
-9 5 -9 10 0 6 7 10 16 10 8 0 12 -4 9 -10z m2848 -945 c-3 -9 -8 -14 -10 -11
-3 3 -2 9 2 15 9 16 15 13 8 -4z m-3053 -102 c0 -7 -35 -53 -69 -92 -11 -13
-21 -28 -21 -32 0 -5 -19 -39 -41 -76 -23 -37 -48 -90 -56 -117 l-15 -51 -12
30 c-11 26 -10 34 9 60 12 17 36 55 54 86 17 31 38 62 46 69 8 7 15 20 15 29
0 9 8 24 18 33 9 9 25 28 35 42 17 24 37 35 37 19z m582 -49 c29 -9 60 -19 68
-23 16 -8 246 -347 282 -415 16 -31 18 -44 9 -58 -16 -25 -13 -86 8 -210 23
-132 15 -195 -25 -195 -13 0 -24 2 -24 6 0 12 -177 17 -231 6 -23 -4 -39 -3
-43 4 -12 18 -26 12 -26 -10 0 -17 -4 -20 -22 -15 -13 3 -29 6 -37 6 -8 0 -11
6 -7 15 4 10 -1 15 -16 15 -17 0 -18 -3 -8 -15 10 -12 7 -14 -17 -14 -15 1
-48 -3 -73 -8 -42 -7 -39 -8 45 -13 l90 -5 0 -53 c0 -30 -5 -57 -10 -62 -6 -5
-33 -10 -60 -12 -44 -3 -50 -6 -53 -27 -5 -33 12 -46 56 -42 52 3 66 -15 58
-73 l-7 -45 -52 -3 -52 -3 0 -40 0 -40 55 -3 c30 -2 58 -9 62 -15 14 -23 6
-96 -11 -101 -27 -8 -220 -6 -224 2 -3 4 -7 122 -8 262 l-4 255 23 3 c38 6 14
21 -26 16 -20 -2 -30 -1 -22 2 8 3 30 13 49 21 18 8 84 25 147 36 63 12 114
25 114 30 0 21 -206 -10 -293 -44 -57 -23 -57 -23 -57 -4 0 17 -16 20 -25 5
-9 -14 -26 -12 -24 3 3 28 -2 37 -22 37 -25 0 -60 -18 -75 -38 -8 -11 -31 -14
-99 -13 -49 1 -97 7 -108 12 -13 8 -22 8 -30 0 -7 -7 -14 -7 -24 0 -10 9 -13
8 -13 -5 0 -9 -4 -16 -10 -16 -13 0 -13 4 6 69 17 58 39 120 92 254 16 42 28
77 26 77 -7 0 -54 -79 -54 -91 0 -6 -14 -27 -30 -46 -17 -18 -30 -42 -30 -53
0 -25 -31 -90 -43 -90 -6 0 -7 19 -3 48 4 26 8 58 9 72 1 14 5 27 9 30 3 3 9
22 13 43 6 32 5 37 -11 37 -11 0 -15 4 -9 8 6 4 21 24 35 44 14 21 35 43 47
49 25 14 30 34 11 43 -9 3 -8 8 5 16 27 17 21 31 -10 24 -24 -6 -20 1 33 52
69 67 88 96 79 123 -3 12 0 21 9 24 14 5 46 67 46 87 0 4 -14 6 -31 4 -17 -2
-29 0 -27 4 25 51 34 62 49 62 40 0 47 -69 14 -137 -13 -28 -27 -64 -31 -80
-4 -15 -9 -32 -12 -38 -4 -5 -7 -26 -7 -47 -1 -32 1 -35 17 -27 10 5 18 15 18
23 0 16 109 236 118 237 4 1 26 3 49 3 25 2 50 9 60 20 10 9 34 28 53 42 33
23 41 24 127 19 50 -3 116 -12 145 -21z m-449 -59 c-3 -9 -8 -14 -10 -11 -3 3
-2 9 2 15 9 16 15 13 8 -4z m2126 -120 c0 -5 -4 -3 -9 5 -5 8 -9 22 -9 30 0
16 17 -16 18 -35z m128 -292 c10 -21 29 -44 43 -51 l25 -14 -24 6 c-22 4 -23
3 -9 -10 8 -8 37 -19 64 -23 34 -6 40 -9 19 -10 -16 0 -46 2 -67 5 -33 6 -39
12 -62 64 -29 64 -30 70 -16 70 5 0 18 -17 27 -37z m-2626 -30 c-5 -10 -17
-35 -27 -55 -10 -21 -25 -38 -34 -38 -9 0 -11 3 -4 8 5 4 16 23 24 42 7 19 18
41 23 48 14 19 29 15 18 -5z m-191 -57 c0 -11 -19 -15 -25 -6 -3 5 1 10 9 10
9 0 16 -2 16 -4z m2517 -292 c-3 -3 -12 -4 -19 -1 -8 3 -5 6 6 6 11 1 17 -2
13 -5z m3 -44 c0 -5 -5 -10 -11 -10 -5 0 -7 5 -4 10 3 6 8 10 11 10 2 0 4 -4
4 -10z m-1217 -17 c-7 -2 -19 -2 -25 0 -7 3 -2 5 12 5 14 0 19 -2 13 -5z
m-875 -23 l42 0 0 -54 0 -55 -37 -3 -38 -3 -3 -197 c-3 -220 5 -200 -72 -200
-16 0 -34 1 -40 1 -6 1 -11 79 -12 199 l-3 197 -50 0 -50 0 -3 -197 -2 -198
-54 0 -54 0 -6 148 c-3 81 -4 170 -3 197 l2 50 -40 5 -40 5 0 50 0 50 175 6
c96 3 191 4 210 2 19 -1 54 -3 78 -3z m182 -175 c-1 -77 -2 -159 -1 -182 l1
-42 53 -3 52 -3 0 -55 0 -55 -100 -1 c-55 -1 -106 2 -114 6 -12 6 -15 51 -17
236 -1 126 0 239 3 251 4 19 13 22 56 25 44 3 53 0 60 -17 5 -11 8 -83 7 -160z
m666 160 c22 -22 25 -32 22 -93 l-3 -67 -60 0 -60 0 -3 38 c-4 44 -27 50 -34
10 -3 -16 -5 -86 -4 -158 1 -112 3 -130 17 -133 13 -2 18 7 21 40 3 27 1 47
-7 53 -14 12 -26 88 -15 104 4 8 31 11 76 9 l69 -3 3 -115 c4 -171 -10 -190
-141 -190 -147 0 -147 1 -147 275 0 205 0 206 25 230 22 23 32 25 120 25 89 0
98 -2 121 -25z m205 15 c63 0 80 -4 100 -21 22 -19 24 -28 24 -114 0 -81 -3
-97 -22 -123 l-22 -30 29 -81 c17 -45 30 -95 30 -111 0 -29 -1 -30 -53 -30
l-52 0 -29 95 c-16 52 -33 95 -38 95 -4 0 -8 -43 -8 -95 l0 -95 -40 -2 c-22
-1 -48 -2 -57 -2 -17 -1 -18 19 -23 254 -3 164 -1 258 5 263 6 4 26 5 45 2 19
-2 69 -5 111 -5z m418 -16 c20 -25 21 -39 21 -231 0 -273 0 -273 -152 -273
-67 0 -81 3 -105 24 l-28 24 0 220 c0 275 -7 262 141 262 99 0 103 -1 123 -26z
m475 -29 c9 -30 23 -80 32 -110 8 -30 17 -55 20 -55 2 0 3 48 2 108 l-3 107
46 1 c26 1 51 -1 57 -5 8 -5 10 -78 4 -261 l-7 -255 -42 -1 c-23 0 -46 2 -51
5 -5 3 -23 49 -40 101 l-30 95 -1 -97 c-1 -94 -2 -98 -25 -104 -13 -3 -37 -4
-52 -2 l-29 3 -5 253 c-3 139 -3 257 -2 262 2 6 28 10 57 10 l54 0 15 -55z
m424 39 c42 -9 49 -51 45 -254 -3 -206 -6 -225 -31 -239 -19 -10 -218 -22
-239 -14 -10 4 -13 55 -13 257 0 139 3 256 7 260 7 7 187 -1 231 -10z m-2883
-6 c10 -28 65 -415 65 -455 l0 -43 -54 0 -55 0 -3 43 c-3 38 -6 42 -30 45 -26
3 -28 1 -28 -37 0 -44 -9 -53 -54 -56 -76 -5 -77 -1 -46 207 11 73 25 167 31
208 6 41 12 81 14 88 3 8 28 12 80 12 51 0 77 -4 80 -12z m3645 -72 c0 -5 -13
3 -30 19 -16 16 -30 32 -30 37 0 4 14 -4 30 -19 17 -14 30 -31 30 -37z m-178
-92 c4 -27 15 -72 24 -101 18 -53 16 -71 -8 -57 -7 5 -25 7 -39 6 -25 -3 -27
0 -34 55 -4 32 -14 65 -22 75 -13 14 -12 17 4 27 10 6 14 11 9 11 -4 0 2 9 15
20 34 27 43 21 51 -36z m178 21 c14 -19 14 -19 -2 -6 -10 7 -18 18 -18 24 0 6
1 8 3 6 1 -2 9 -13 17 -24z m-91 -317 c1 -10 -5 -18 -13 -18 -8 0 -16 -6 -19
-12 -2 -8 -11 0 -20 17 -9 17 -16 24 -17 18 0 -27 -20 -11 -20 16 0 31 13 47
45 53 15 3 23 -4 32 -27 6 -16 12 -38 12 -47z m-4357 -115 c-6 -2 -10 -8 -8
-12 3 -4 -6 -7 -19 -7 -13 0 -21 4 -19 8 3 5 9 6 14 3 5 -3 11 -1 15 5 3 5 12
10 18 9 9 0 8 -2 -1 -6z m2363 -268 l0 -220 -1042 -3 -1043 -2 0 225 0 225
1043 -2 1042 -3 0 -220z m310 0 l0 -180 -28 -3 c-53 -6 -57 5 -57 182 0 177 4
189 55 184 l30 -3 0 -180z m236 138 c11 -27 28 -64 37 -83 l16 -35 6 80 c5 79
5 80 33 83 55 6 58 -5 55 -186 -3 -179 -8 -192 -60 -179 -19 5 -32 24 -58 84
-18 43 -37 82 -42 87 -4 6 -8 -24 -8 -66 0 -92 -5 -108 -35 -108 -55 0 -55 -1
-55 184 0 95 3 176 7 179 3 4 24 7 45 7 37 0 40 -3 59 -47z m448 37 c66 -12
71 -24 71 -176 0 -175 -1 -176 -134 -182 -68 -3 -100 -1 -111 8 -13 11 -15 41
-14 179 1 112 5 168 13 173 14 10 116 8 175 -2z m276 -175 l0 -170 -42 -3 -43
-3 0 176 0 176 43 -3 42 -3 0 -170z m304 158 c9 -19 91 -307 91 -323 0 -6 -18
-10 -40 -10 -34 0 -42 4 -50 25 -8 20 -16 25 -44 25 -47 0 -66 -9 -66 -31 0
-16 -8 -19 -46 -19 -39 0 -46 3 -42 18 3 9 25 88 48 175 l44 157 47 0 c36 0
51 -5 58 -17z"/>
<path d="M2450 4674 c0 -17 22 -14 28 4 2 7 -3 12 -12 12 -9 0 -16 -7 -16 -16z"/>
<path d="M1650 2139 c0 -5 5 -7 10 -4 6 3 10 8 10 11 0 2 -4 4 -10 4 -5 0 -10
-5 -10 -11z"/>
<path d="M1680 2096 c0 -22 17 -28 24 -10 9 22 8 24 -9 24 -8 0 -15 -6 -15
-14z"/>
<path d="M2753 1453 c-9 -3 -13 -25 -13 -64 0 -56 1 -59 25 -59 24 0 25 3 25
59 0 58 -9 74 -37 64z"/>
<path d="M3062 1293 c3 -133 5 -158 18 -158 13 0 15 24 15 155 0 140 -2 155
-18 158 -16 3 -17 -8 -15 -155z"/>
<path d="M3987 1443 c-3 -5 -5 -77 -6 -161 l-2 -154 23 4 c30 4 32 20 23 186
-5 100 -10 132 -20 132 -8 0 -16 -3 -18 -7z"/>
<path d="M1131 1318 c-1 -40 3 -68 9 -68 11 0 11 60 0 105 -6 23 -8 15 -9 -37z"/>
<path d="M924 827 c-2 -7 -3 -71 -2 -143 l3 -129 35 0 35 0 5 60 5 60 20 -60
c13 -38 26 -60 35 -60 9 0 23 23 37 60 l21 60 4 -60 3 -60 35 0 35 0 0 140 c0
139 0 140 -24 143 -51 8 -65 -4 -84 -68 -10 -33 -22 -60 -26 -60 -4 0 -15 26
-25 58 -10 31 -24 60 -30 64 -19 13 -76 9 -82 -5z"/>
<path d="M1315 827 c-18 -14 -20 -25 -17 -134 4 -140 6 -143 102 -143 104 0
110 7 110 143 0 62 -5 119 -10 127 -14 22 -158 27 -185 7z m115 -133 l0 -85
-27 3 c-28 3 -28 4 -28 78 -1 41 1 78 3 83 2 4 14 7 28 7 24 0 24 -2 24 -86z"/>
<path d="M1614 827 c-2 -7 -3 -71 -2 -143 l3 -129 93 0 c71 0 95 3 102 15 5 8
8 66 7 129 -2 112 -3 116 -27 128 -34 17 -169 17 -176 0z m124 -74 c-4 -35
-43 -45 -53 -14 -9 28 1 41 31 41 22 0 25 -4 22 -27z m2 -114 c0 -27 -3 -30
-27 -27 -21 2 -27 8 -26 26 1 32 1 32 28 32 21 0 25 -5 25 -31z"/>
<path d="M1947 832 l-28 -3 3 -137 3 -137 30 0 30 0 3 134 c1 74 -1 137 -5
141 -4 3 -20 4 -36 2z"/>
<path d="M2438 832 l-78 -3 0 -134 c0 -155 -9 -145 115 -142 68 2 70 3 70 27
0 23 -4 25 -52 28 -51 3 -53 4 -53 32 0 26 4 29 38 32 30 2 38 7 40 26 3 20
-1 22 -38 22 -41 0 -41 1 -38 33 3 31 4 32 48 30 40 -2 59 7 60 29 0 16 -39
23 -112 20z"/>
<path d="M2092 693 l3 -138 70 -3 c93 -4 117 3 113 31 -3 19 -10 22 -55 25
l-53 3 0 110 0 109 -40 0 -41 0 3 -137z"/>
<path d="M3670 695 l0 -115 40 0 40 0 0 115 0 115 -40 0 -40 0 0 -115z"/>
<path d="M4278 688 c-8 -29 -13 -56 -11 -60 5 -9 63 -11 63 -2 0 15 -24 100
-30 107 -4 4 -14 -16 -22 -45z"/>
<path d="M775 4811 c2 -11 0 -21 -6 -21 -5 0 -9 6 -9 13 0 8 -3 7 -9 -3 -12
-18 -5 -29 18 -27 18 1 24 38 8 53 -3 4 -5 -3 -2 -15z"/>
<path d="M556 4238 c-19 -32 -29 -210 -13 -232 12 -16 14 -16 31 3 11 12 29
21 42 21 27 0 55 37 77 102 16 48 9 70 -13 43 -18 -21 -40 -7 -61 41 -20 49
-41 56 -63 22z"/>
<path d="M663 4191 c0 -11 5 -18 9 -15 4 3 5 11 1 19 -7 21 -12 19 -10 -4z"/>
<path d="M0 4076 c0 -77 4 -126 10 -126 13 0 13 -47 0 -55 -12 -8 -2 -34 13
-31 33 5 37 17 32 104 -9 141 -19 197 -40 219 -13 13 -15 -1 -15 -111z"/>
<path d="M516 3532 c-3 -5 1 -9 9 -9 8 0 12 4 9 9 -3 4 -7 8 -9 8 -2 0 -6 -4
-9 -8z"/>
<path d="M324 3506 c-3 -8 -25 -17 -50 -21 -24 -3 -44 -11 -44 -16 0 -6 5 -7
12 -3 6 4 8 3 5 -3 -4 -6 3 -19 15 -29 12 -11 18 -13 14 -6 -4 6 -3 12 2 12 6
0 13 -7 16 -16 5 -12 10 -14 20 -5 7 6 17 7 21 3 5 -4 5 -2 1 5 -3 6 -2 14 4
18 9 5 15 -15 11 -38 -1 -5 3 -6 9 -2 14 9 13 -8 -2 -25 -11 -12 -10 -12 4 -1
16 12 22 55 6 45 -4 -3 -8 2 -8 11 0 9 4 14 9 11 5 -4 8 0 7 6 -1 12 -10 19
-21 17 -3 -1 -11 -2 -17 -3 -7 -1 -11 -8 -10 -16 2 -8 0 -11 -4 -7 -10 10 -14
37 -6 36 22 -3 32 3 32 21 0 23 -18 27 -26 6z m-4 -70 c0 -3 -4 -8 -10 -11 -5
-3 -10 -1 -10 4 0 6 5 11 10 11 6 0 10 -2 10 -4z"/>
<path d="M162 3424 c-1 -14 3 -23 11 -21 6 1 11 -4 9 -11 -1 -8 2 -11 7 -7 6
3 7 13 4 22 -4 11 -3 14 5 9 7 -4 15 -1 18 8 3 9 11 13 17 9 6 -4 7 -1 2 7 -6
10 -11 9 -21 -4 -8 -12 -13 -13 -16 -5 -8 23 -34 18 -36 -7z"/>
<path d="M3655 2748 c-26 -14 -36 -30 -30 -45 2 -6 -6 -13 -18 -15 -20 -3 -19
-4 5 -9 17 -4 25 -2 21 4 -4 7 1 8 13 3 10 -4 48 -16 84 -27 36 -11 81 -24
102 -30 20 -7 53 -12 74 -13 49 -1 55 20 16 62 -21 23 -40 32 -78 37 -65 8
-137 26 -148 36 -13 11 -17 11 -41 -3z m238 -65 c-7 -2 -21 -2 -30 0 -10 3 -4
5 12 5 17 0 24 -2 18 -5z"/>
<path d="M3470 2712 c0 -13 126 -106 157 -116 13 -4 36 -24 53 -44 23 -29 30
-32 30 -17 0 21 -71 91 -140 137 -45 31 -100 53 -100 40z"/>
<path d="M3570 2710 c0 -5 4 -10 9 -10 6 0 13 5 16 10 3 6 -1 10 -9 10 -9 0
-16 -4 -16 -10z"/>
<path d="M4850 2630 c6 -11 13 -20 16 -20 2 0 0 9 -6 20 -6 11 -13 20 -16 20
-2 0 0 -9 6 -20z"/>
<path d="M3720 2493 c0 -18 22 -63 31 -63 21 0 19 25 -5 48 -14 15 -26 21 -26
15z"/>
<path d="M1450 2420 c0 -5 7 -10 15 -10 8 0 15 5 15 10 0 6 -7 10 -15 10 -8 0
-15 -4 -15 -10z"/>
<path d="M4200 2276 c0 -8 4 -17 9 -20 5 -4 7 3 4 14 -6 23 -13 26 -13 6z"/>
<path d="M1127 2070 c3 -11 9 -17 15 -14 5 3 4 12 -3 20 -16 19 -18 18 -12 -6z"/>
<path d="M3671 1741 c-21 -6 -22 -8 -8 -19 21 -18 51 -12 55 11 4 18 -6 20
-47 8z"/>
<path d="M3240 1699 c0 -7 16 -8 48 -3 64 9 66 14 4 14 -30 0 -52 -4 -52 -11z"/>
<path d="M3436 1582 c-15 -14 -3 -22 36 -22 23 0 39 2 36 5 -10 10 -66 23 -72
17z"/>
<path d="M810 1400 c0 -53 2 -60 20 -60 18 0 20 7 20 60 0 53 -2 60 -20 60
-18 0 -20 -7 -20 -60z"/>
<path d="M817 1244 c-4 -4 -7 -31 -7 -61 0 -47 2 -53 20 -53 19 0 21 5 18 57
-3 52 -14 73 -31 57z"/>
</g>
</svg>
